# xmcd
#
# Track frame offsets:
#	150
#	14721
#	28222
#	42941
#	60840
#	74916
#	93459
#	109486
#	126485
#	143739
#	159429
#	178562
#	200194
#	217800
#	236850
#	256350
#
# Disc length: 3635 seconds
#
# Revision: 0
# Processed by: cddbd v1.5.2PL0 Copyright (c) Steve Scherf et al.
# Submitted via: EasyCDDAExtractor 16.0.1.1
#
DISCID=f80e3110
DTITLE=ΓΙΑΝΝΗΣ ΚΟΤΣΙΡΑΣ - Ο "ΔΡΟΜΟΣ" ΕΩΣ ΤΗΝ "ΣΜΥΡΝΗ ΤΟΥ ΕΡΩΤΑ" [CD2
DYEAR=2012
DGENRE=ΕΝΤΕΧΝΑ ΛΑΪΚΑ
TTITLE0=ΕΦΤΑ ΠΟΤΗΡΙΑ (Live)
TTITLE1=ΤΟ ΤΣΙΓΑΡΟ (Live)
TTITLE2=ΧΑΝΤΡΑ ΘΑΛΑΣΣΙΑ (Live)
TTITLE3=ΑΛΕΞΑΝΔΡΕΙΑ (Live)
TTITLE4=ΑΝΑΘΕΜΑ ΣΕ (Live)
TTITLE5=ΕΤΣΙ ΚΙ ΑΛΛΙΩΣ (Live)
TTITLE6=ΤΑ ΜΑΥΡΑ ΜΑΤΙΑ ΣΟΥ (Live)
TTITLE7=ΔΕΝ ΘΑ ΞΑΝΑΓΑΠΗΣΩ (Live)
TTITLE8=ΨΙΘΥΡΟΣ ΣΤΗ ΜΟΝΑΞΙΑ
TTITLE9=ΕΓΩ ΔΕ ΣΕ ΚΑΤΗΓΟΡΩ
TTITLE10=ΞΕΠΕΣΜΕΝΟΣ ΑΓΓΕΛΟΣ
TTITLE11=ΘΑ ΡΩΤΗΣΩ ΤΑ ΤΡΑΓΟΥΔΙΑ
TTITLE12=ΣΕ ΕΡΩΤΕΥΟΜΑΙ
TTITLE13=ΤΟ ΣΕΝΤΟΝΙ
TTITLE14=ΠΩΣ ΘΑ ΠΕΘΑΝΩ ΕΓΩ ΓΙΑ ΣΕΝΑ
TTITLE15=Η ΖΩΗ ΣΕ ΜΙΑ ΜΕΡΑ
EXTD=
EXTT0=
EXTT1=
EXTT2=
EXTT3=
EXTT4=
EXTT5=
EXTT6=
EXTT7=
EXTT8=
EXTT9=
EXTT10=
EXTT11=
EXTT12=
EXTT13=
EXTT14=
EXTT15=
PLAYORDER=
